<svg width="512" height="512" xmlns="http://www.w3.org/2000/svg">

 <g>
  <title>background</title>
  <rect fill="none" id="canvas_background" height="514" width="514" y="-1" x="-1"/>
 </g>
 <g>
  <title>Layer 1</title>
  <g stroke="null" id="svg_1">
   <path stroke="null" fill="#ffffff" id="svg_2" d="m477.101621,134.483842c-22.961354,-39.721235 -54.106964,-71.168592 -93.445028,-94.349164c-39.343919,-23.181755 -82.29575,-34.769677 -128.885938,-34.769677c-46.584334,0 -89.550216,11.591469 -128.885938,34.769677c-39.341577,23.179391 -70.486016,54.62793 -93.44737,94.349164c-22.957841,39.720052 -34.437347,83.094657 -34.437347,130.122631c0,56.491267 16.324014,107.289661 48.98024,152.408188c32.652713,45.122074 74.835183,76.34479 126.543899,93.671695c6.019041,1.127934 10.474771,0.334597 13.371874,-2.359911c2.898274,-2.698055 4.345654,-6.077127 4.345654,-10.123027c0,-0.675105 -0.05738,-6.748685 -0.168627,-18.227833c-0.11476,-11.479148 -0.168627,-21.493402 -0.168627,-30.038031l-7.690086,1.343116c-4.903059,0.90684 -11.088385,1.291094 -18.555978,1.18232c-7.464079,-0.105227 -15.212717,-0.895017 -23.235372,-2.363458c-8.026169,-1.455436 -15.491419,-4.830961 -22.401606,-10.11948c-6.906674,-5.288519 -11.809733,-12.211005 -14.708007,-20.756816l-3.343261,-7.767845c-2.22845,-5.171469 -5.736825,-10.916364 -10.529809,-17.213402c-4.792984,-6.30295 -9.639834,-10.575856 -14.542893,-12.825811l-2.340868,-1.6919c-1.559798,-1.124387 -3.007179,-2.480508 -4.345654,-4.054177c-1.337304,-1.573668 -2.338526,-3.148519 -3.007179,-4.725734c-0.669823,-1.578398 -0.11476,-2.873038 1.671045,-3.888652c1.785805,-1.015613 5.013135,-1.508641 9.696043,-1.508641l6.68418,1.008519c4.458072,0.90211 9.972404,3.596619 16.550021,8.100077c6.574104,4.499911 11.97836,10.350032 16.213938,17.547999c5.129066,9.229193 11.308537,16.261634 18.555978,21.100871c7.241586,4.839237 14.542893,7.254718 21.896897,7.254718c7.354004,0 13.705614,-0.562784 19.057174,-1.682442c5.345705,-1.125569 10.361182,-2.817469 15.04409,-5.066243c2.005957,-15.084043 7.467592,-26.671965 16.380223,-34.772042c-12.703221,-1.347845 -24.124176,-3.377889 -34.26872,-6.077127c-10.138688,-2.702784 -20.615801,-7.089193 -31.424313,-13.171049c-10.814367,-6.07358 -19.785548,-13.615601 -26.915887,-22.613059c-7.13151,-9.002187 -12.984266,-20.820661 -17.550072,-35.444782c-4.568148,-14.630032 -6.852807,-31.506473 -6.852807,-50.634052c0,-27.234749 8.806068,-50.410593 26.414691,-69.540536c-8.248663,-20.475424 -7.469934,-43.428991 2.338526,-68.858338c6.464029,-2.027679 16.049996,-0.506033 28.753217,4.55548c12.705563,5.063878 22.008144,9.401811 27.917109,12.99843c5.908965,3.595436 10.643398,6.642276 14.210324,9.113325c20.732903,-5.848939 42.128604,-8.773999 64.192956,-8.773999s43.464737,2.925061 64.198812,8.773999l12.704392,-8.097712c8.687795,-5.403204 18.947098,-10.354762 30.753319,-14.855855c11.813246,-4.498729 20.846492,-5.737801 27.090369,-3.710121c10.02627,25.430529 10.919758,48.382914 2.668754,68.858338c17.607452,19.129943 26.417033,42.311699 26.417033,69.540536c0,19.127579 -2.292857,36.057224 -6.853978,50.799576c-4.566977,14.744717 -10.470087,26.551368 -17.711673,35.444782c-7.249783,8.892231 -16.278344,16.375137 -27.086856,22.447534c-10.810854,6.077127 -21.29148,10.463535 -31.430168,13.166319c-10.143372,2.702784 -21.564327,4.734011 -34.267549,6.084221c11.586069,10.123027 17.380274,26.102087 17.380274,47.930085l0,71.219431c0,4.0459 1.393513,7.42379 4.182882,10.123027c2.785856,2.694508 7.185377,3.487845 13.204418,2.358729c51.715742,-17.32454 93.898213,-48.548438 126.549754,-93.670513c32.648028,-45.118527 48.977898,-95.916921 48.977898,-152.408188c-0.01171,-47.022063 -11.497071,-90.393121 -34.444373,-130.113173z"/>
  </g>
  <g id="svg_3"/>
  <g id="svg_4"/>
  <g id="svg_5"/>
  <g id="svg_6"/>
  <g id="svg_7"/>
  <g id="svg_8"/>
  <g id="svg_9"/>
  <g id="svg_10"/>
  <g id="svg_11"/>
  <g id="svg_12"/>
  <g id="svg_13"/>
  <g id="svg_14"/>
  <g id="svg_15"/>
  <g id="svg_16"/>
  <g id="svg_17"/>
 </g>
</svg>