<svg width="512" height="512" xmlns="http://www.w3.org/2000/svg">

 <g>
  <title>background</title>
  <rect fill="none" id="canvas_background" height="402" width="582" y="-1" x="-1"/>
 </g>
 <g>
  <title>Layer 1</title>
  <path fill="#ffffff" id="svg_1" d="m256,0c-141.363281,0 -256,114.636719 -256,256s114.636719,256 256,256s256,-114.636719 256,-256s-114.636719,-256 -256,-256zm-74.390625,387l-62.347656,0l0,-187.574219l62.347656,0l0,187.574219zm-31.171875,-213.1875l-0.40625,0c-20.921875,0 -34.453125,-14.402344 -34.453125,-32.402344c0,-18.40625 13.945313,-32.410156 35.273437,-32.410156c21.328126,0 34.453126,14.003906 34.859376,32.410156c0,18 -13.53125,32.402344 -35.273438,32.402344zm255.984375,213.1875l-62.339844,0l0,-100.347656c0,-25.21875 -9.027343,-42.417969 -31.585937,-42.417969c-17.222656,0 -27.480469,11.601563 -31.988282,22.800781c-1.648437,4.007813 -2.050781,9.609375 -2.050781,15.214844l0,104.75l-62.34375,0s0.816407,-169.976562 0,-187.574219l62.34375,0l0,26.558594c8.285157,-12.78125 23.109375,-30.960937 56.1875,-30.960937c41.019531,0 71.777344,26.808593 71.777344,84.421874l0,107.554688zm0,0"/>
 </g>
</svg>