<?xml version="1.0" encoding="iso-8859-1"?>
<!-- Generator: Adobe Illustrator 19.0.0, SVG Export Plug-In . SVG Version: 6.00 Build 0)  -->
<svg version="1.1" id="Capa_1" xmlns="http://www.w3.org/2000/svg" xmlns:xlink="http://www.w3.org/1999/xlink" x="0px" y="0px"
	 viewBox="0 0 512 512" style="enable-background:new 0 0 512 512;" xml:space="preserve">
<g>
	<g>
		<path d="M30,256c0-50.931,16.535-99.009,47.817-139.038c5.101-6.528,3.944-15.954-2.583-21.056
			c-6.527-5.1-15.954-3.944-21.055,2.583C18.735,143.844,0,198.311,0,256c0,57.689,18.735,112.156,54.179,157.511
			c5.067,6.485,14.485,7.717,21.054,2.583c6.528-5.102,7.684-14.529,2.583-21.056C46.535,355.009,30,306.931,30,256z"/>
	</g>
</g>
<g>
	<g>
		<path d="M457.822,98.489c-5.1-6.528-14.528-7.684-21.055-2.583c-6.528,5.102-7.684,14.529-2.583,21.056
			C465.465,156.991,482,205.069,482,256c0,50.931-16.535,99.009-47.817,139.038c-5.101,6.528-3.944,15.954,2.583,21.056
			c6.511,5.087,15.939,3.963,21.055-2.583C493.265,368.156,512,313.689,512,256C512,198.311,493.265,143.844,457.822,98.489z"/>
	</g>
</g>
<g>
	<g>
		<path d="M256,51C142.962,51,51,142.963,51,256s91.962,205,205,205s205-91.963,205-205S369.038,51,256,51z M252.464,337.317
			l-14.142,14.142c-21.493,21.494-56.285,21.498-77.782,0c-21.444-21.444-21.444-56.337,0-77.781l42.427-42.427
			c21.445-21.442,56.336-21.442,77.781-0.001c5.858,5.858,5.858,15.355,0,21.214c-5.857,5.857-15.355,5.858-21.213,0.001
			c-9.748-9.749-25.609-9.746-35.355-0.001l-42.427,42.427c-9.747,9.747-9.747,25.608,0,35.355c9.748,9.748,25.608,9.747,35.355,0
			l14.142-14.142c5.858-5.858,15.356-5.858,21.213,0C258.32,321.962,258.322,331.46,252.464,337.317z M351.46,238.322
			l-42.427,42.427c-21.445,21.444-56.335,21.443-77.781,0.001c-5.858-5.858-5.858-15.355,0-21.214
			c5.857-5.857,15.355-5.858,21.213-0.001c9.747,9.748,25.608,9.747,35.355,0.001l42.427-42.427c9.747-9.747,9.747-25.608,0-35.355
			c-9.747-9.747-25.607-9.745-35.355,0l-14.142,14.142c-5.858,5.858-15.355,5.858-21.213,0c-5.857-5.858-5.857-15.355,0-21.213
			l14.142-14.142c21.493-21.494,56.285-21.498,77.782,0C372.903,181.985,372.903,216.878,351.46,238.322z"/>
	</g>
</g>
<g>
</g>
<g>
</g>
<g>
</g>
<g>
</g>
<g>
</g>
<g>
</g>
<g>
</g>
<g>
</g>
<g>
</g>
<g>
</g>
<g>
</g>
<g>
</g>
<g>
</g>
<g>
</g>
<g>
</g>
</svg>
