<svg width="512" height="512" xmlns="http://www.w3.org/2000/svg">

 <g>
  <title>background</title>
  <rect fill="none" id="canvas_background" height="402" width="582" y="-1" x="-1"/>
 </g>
 <g>
  <title>Layer 1</title>
  <g stroke="null" id="svg_7">
   <g stroke="null" id="svg_8">
    <path stroke="null" id="svg_9" d="m255.756393,-0.499994c-140.756713,0 -255.269257,114.95949 -255.269257,256.262796s114.512543,256.262796 255.269257,256.262796s255.269257,-114.95949 255.269257,-256.262796s-114.512543,-256.262796 -255.269257,-256.262796zm-4.403083,357.914122l-17.609843,17.678383c-26.763425,26.868842 -70.086976,26.873842 -96.855382,0c-26.702409,-26.806339 -26.702409,-70.424767 0,-97.231105l52.830774,-53.036398c26.703655,-26.803838 70.150482,-26.803838 96.854137,-0.00125c7.294475,7.322866 7.294475,19.194708 0,26.518824c-7.293229,7.321616 -19.12029,7.322866 -26.414765,0.00125c-12.138364,-12.186859 -31.888734,-12.183108 -44.024608,-0.00125l-52.830774,53.036398c-12.137119,12.184358 -12.137119,32.011598 0,44.195957c12.138364,12.185608 31.887488,12.184358 44.024608,0l17.609843,-17.678383c7.294475,-7.322866 19.121535,-7.322866 26.414765,0c7.293229,7.322866 7.29572,19.195959 0.001245,26.517574zm123.271392,-123.749929l-52.830774,53.036398c-26.703655,26.806339 -70.149237,26.805088 -96.854137,0.00125c-7.294475,-7.322866 -7.294475,-19.194708 0,-26.518824c7.293229,-7.321616 19.12029,-7.322866 26.414765,-0.00125c12.137119,12.185608 31.887488,12.184358 44.024608,0.00125l52.830774,-53.036398c12.137119,-12.184358 12.137119,-32.011598 0,-44.195957c-12.137119,-12.184358 -31.886243,-12.181858 -44.024608,0l-17.609843,17.678383c-7.294475,7.322866 -19.12029,7.322866 -26.414765,0c-7.293229,-7.322866 -7.293229,-19.194708 0,-26.517574l17.609843,-17.678383c26.763425,-26.868842 70.086976,-26.873842 96.855382,0c26.699919,26.806339 26.699919,70.424767 -0.001245,97.231105z"/>
   </g>
  </g>
  <g id="svg_10"/>
  <g id="svg_11"/>
  <g id="svg_12"/>
  <g id="svg_13"/>
  <g id="svg_14"/>
  <g id="svg_15"/>
  <g id="svg_16"/>
  <g id="svg_17"/>
  <g id="svg_18"/>
  <g id="svg_19"/>
  <g id="svg_20"/>
  <g id="svg_21"/>
  <g id="svg_22"/>
  <g id="svg_23"/>
  <g id="svg_24"/>
 </g>
</svg>